<svg width="42" height="52" viewBox="0 0 42 52" fill="none" xmlns="http://www.w3.org/2000/svg">
<path d="M35.8493 36.5159L21 51.3652L6.15068 36.5159C3.2138 33.579 1.21377 29.8371 0.4035 25.7635C-0.406769 21.69 0.00911597 17.4676 1.59856 13.6303C3.18801 9.7931 5.87964 6.51337 9.33306 4.20587C12.7865 1.89837 16.8466 0.666748 21 0.666748C25.1534 0.666748 29.2135 1.89837 32.667 4.20587C36.1204 6.51337 38.812 9.7931 40.4015 13.6303C41.9909 17.4676 42.4068 21.69 41.5965 25.7635C40.7863 29.8371 38.7862 33.579 35.8493 36.5159ZM21 26.3332C22.2377 26.3332 23.4247 25.8416 24.2998 24.9664C25.175 24.0912 25.6667 22.9042 25.6667 21.6666C25.6667 20.4289 25.175 19.2419 24.2998 18.3667C23.4247 17.4916 22.2377 16.9999 21 16.9999C19.7623 16.9999 18.5753 17.4916 17.7002 18.3667C16.825 19.2419 16.3333 20.4289 16.3333 21.6666C16.3333 22.9042 16.825 24.0912 17.7002 24.9664C18.5753 25.8416 19.7623 26.3332 21 26.3332Z" fill="#FF7129"/>
</svg>
